<?xml version="1.0" encoding="UTF-8" ?>
<!DOCTYPE svg PUBLIC "-//W3C//DTD SVG 1.1//EN" "http://www.w3.org/Graphics/SVG/1.1/DTD/svg11.dtd">
<svg width="800pt" height="600pt" viewBox="0 0 800 600" version="1.1" xmlns="http://www.w3.org/2000/svg">
<g id="#ffffffff">
</g>
<g id="#5dbd8bff">
<path fill="#5dbd8b" opacity="1.00" d=" M 192.58 138.61 C 240.77 97.05 303.43 72.77 367.00 70.73 C 383.55 70.50 400.19 70.67 416.57 73.27 C 460.98 79.17 503.83 95.59 541.30 120.07 C 541.20 128.28 539.40 136.31 538.48 144.43 C 536.16 162.88 529.59 181.16 517.42 195.44 C 507.62 206.33 495.82 215.96 481.82 220.79 C 473.90 222.86 465.50 224.70 457.38 222.69 C 449.46 221.33 441.99 217.32 436.72 211.24 C 429.90 203.09 427.48 190.90 432.01 181.10 C 436.53 172.74 443.85 166.46 449.69 159.07 C 437.55 161.77 426.13 168.59 418.77 178.70 C 414.09 185.14 412.37 193.18 411.97 201.00 C 412.27 213.13 415.88 225.69 424.24 234.79 C 433.07 244.72 445.77 251.02 459.01 252.11 C 475.60 254.29 492.83 251.35 507.72 243.71 C 524.03 235.75 538.32 223.35 547.75 207.78 C 557.41 191.30 562.18 172.43 564.48 153.60 C 565.00 148.35 565.23 143.08 566.00 137.86 C 568.81 140.12 571.79 142.21 574.35 144.78 C 575.68 145.87 575.32 147.71 575.32 149.22 C 574.50 160.28 574.33 171.49 571.46 182.27 C 567.11 201.97 557.61 220.33 544.93 235.95 C 534.03 249.66 519.76 260.82 503.57 267.59 C 493.09 271.58 482.22 275.32 470.91 275.66 C 464.14 275.45 457.37 274.80 450.59 274.91 C 451.80 276.50 453.15 278.10 455.11 278.78 C 463.00 282.16 471.24 285.67 480.01 285.31 C 486.04 285.01 491.99 286.42 498.03 286.22 C 514.97 285.87 531.12 278.65 544.20 268.16 C 572.06 247.33 590.06 214.99 596.07 181.00 C 596.88 176.57 597.69 172.15 598.30 167.69 C 601.48 170.53 604.65 173.42 607.32 176.76 C 609.84 179.54 607.89 183.39 607.60 186.60 C 605.58 199.67 601.92 212.48 596.67 224.62 C 591.40 236.67 586.15 248.71 580.97 260.79 C 575.71 273.11 572.54 286.59 573.92 300.03 C 573.86 301.66 575.00 302.83 575.88 304.07 C 580.10 292.63 584.36 281.13 590.41 270.49 C 603.13 247.21 620.69 225.68 625.55 198.93 C 628.33 203.00 633.17 206.54 632.89 211.93 C 632.79 223.93 631.24 235.86 629.65 247.74 C 628.71 254.52 626.67 261.12 626.37 267.99 C 632.11 264.50 635.55 258.56 638.84 252.92 C 642.33 246.82 644.59 240.14 646.81 233.50 C 652.33 243.23 655.84 253.97 659.81 264.40 C 669.66 266.91 679.90 267.69 690.03 267.01 C 696.68 266.42 703.66 264.37 708.37 259.38 C 712.48 254.37 713.58 247.69 714.58 241.48 C 715.49 236.33 715.02 230.86 712.75 226.12 C 708.05 217.32 698.47 212.44 693.72 203.68 C 700.24 205.55 705.51 210.09 710.43 214.57 C 717.93 221.57 722.45 231.70 722.30 242.00 C 722.55 254.00 716.41 265.69 706.96 272.95 C 701.42 277.59 694.59 280.14 688.17 283.29 C 683.20 285.69 678.80 289.08 674.56 292.59 C 673.09 293.88 671.52 295.22 670.71 297.05 C 670.73 301.93 672.56 306.56 673.68 311.25 C 682.34 346.99 688.43 383.41 690.88 420.12 C 691.51 425.39 691.83 430.70 691.81 436.01 C 692.18 449.06 692.33 462.20 690.47 475.16 C 689.38 484.62 687.83 494.45 682.63 502.63 C 680.60 505.92 677.15 508.70 673.13 508.67 C 668.07 508.34 663.64 505.33 660.02 501.98 C 647.88 490.59 639.50 475.96 631.31 461.65 C 627.23 454.01 622.97 446.45 619.33 438.59 C 618.35 436.49 617.00 434.61 615.72 432.70 C 602.92 404.94 592.07 375.88 574.14 350.86 C 567.80 342.59 560.40 333.94 550.00 330.99 C 543.11 329.00 536.16 332.60 531.13 337.12 C 527.58 340.03 525.48 344.18 522.88 347.87 C 516.48 354.88 513.51 364.08 509.70 372.59 C 493.79 412.78 485.40 455.39 471.25 496.16 C 468.02 505.14 464.55 514.18 459.15 522.11 C 456.35 526.28 451.51 530.85 446.06 529.01 C 439.29 526.33 435.93 519.36 432.52 513.41 C 424.37 497.71 419.38 480.63 414.15 463.80 C 412.02 456.19 409.82 448.59 408.09 440.88 C 407.47 438.24 406.83 435.32 404.24 433.93 C 405.03 426.84 402.32 420.01 400.78 413.20 C 396.29 393.61 390.81 373.89 380.53 356.45 C 374.32 346.01 365.68 336.35 354.15 331.81 C 345.64 328.35 336.15 328.72 327.33 330.68 C 321.87 331.46 316.66 333.37 311.71 335.77 C 289.98 346.02 271.65 361.98 253.97 377.97 C 242.98 388.64 231.72 399.06 221.37 410.37 C 213.56 418.24 205.74 426.10 198.33 434.34 C 176.83 455.83 156.49 478.97 131.25 496.24 C 123.86 500.79 115.93 505.60 106.99 505.72 C 99.84 505.88 93.13 501.47 89.61 495.38 C 83.92 485.88 81.54 474.84 80.04 463.98 C 77.32 442.34 77.55 420.45 78.51 398.71 C 80.88 343.13 92.53 287.38 117.13 237.24 C 135.27 199.73 160.90 165.74 192.58 138.61 M 181.97 241.97 C 172.92 251.10 166.60 262.42 160.72 273.74 C 148.37 299.06 140.07 326.09 132.53 353.16 C 124.14 385.45 117.12 418.10 111.63 451.01 C 109.91 460.67 108.76 470.43 106.61 480.01 C 106.86 480.17 107.35 480.47 107.60 480.62 C 114.05 472.77 121.22 465.57 128.34 458.33 C 139.50 446.51 150.93 434.92 162.83 423.84 C 170.16 416.50 177.52 409.19 184.82 401.82 C 204.95 380.59 224.02 358.01 238.31 332.36 C 244.04 321.61 249.35 310.49 252.00 298.53 C 253.68 290.55 255.35 282.25 253.64 274.12 C 252.07 260.69 244.00 248.60 233.09 240.85 C 225.58 235.56 217.32 230.49 207.97 229.60 C 197.93 229.25 188.60 234.77 181.97 241.97 Z" />
<path fill="#5dbd8b" opacity="1.00" d=" M 207.34 251.92 C 216.50 250.57 225.69 258.74 225.67 268.00 C 226.72 277.32 218.61 287.12 208.99 286.61 C 201.84 286.93 195.52 281.22 193.69 274.55 C 190.37 264.96 197.23 253.40 207.34 251.92 Z" />
</g>
<g id="#3e7156ff">
<path fill="#3e7156" opacity="1.00" d=" M 327.33 330.68 C 336.15 328.72 345.64 328.35 354.15 331.81 C 365.68 336.35 374.32 346.01 380.53 356.45 C 390.81 373.89 396.29 393.61 400.78 413.20 C 402.32 420.01 405.03 426.84 404.24 433.93 C 398.88 447.52 393.65 461.17 387.64 474.50 C 383.65 483.86 379.17 493.06 373.70 501.66 C 370.54 506.40 366.88 511.23 361.57 513.69 C 357.73 514.85 354.19 511.77 352.16 508.82 C 345.86 499.56 344.01 488.26 341.48 477.57 C 335.69 447.35 333.05 416.65 330.85 385.99 C 330.62 379.88 330.16 373.79 329.51 367.71 C 328.94 355.36 328.16 343.02 327.33 330.68 Z" />
<path fill="#3e7156" opacity="1.00" d=" M 531.13 337.12 C 536.16 332.60 543.11 329.00 550.00 330.99 C 560.40 333.94 567.80 342.59 574.14 350.86 C 592.07 375.88 602.92 404.94 615.72 432.70 C 613.56 442.64 612.89 452.85 610.89 462.82 C 608.60 475.09 605.93 487.39 601.01 498.91 C 598.48 504.65 595.10 510.37 589.63 513.73 C 586.19 514.97 582.17 513.98 579.52 511.49 C 571.89 505.24 567.75 496.08 563.53 487.42 C 555.08 468.41 549.07 448.44 543.53 428.43 C 538.29 409.24 533.82 389.86 529.42 370.46 C 527.34 362.90 525.78 355.17 522.88 347.87 C 525.48 344.18 527.58 340.03 531.13 337.12 Z" />
</g>
</svg>
